<svg viewBox="0 0 800 800" xmlns="http://www.w3.org/2000/svg" class="brand">
  <path d="m265.4 412.14q4.4569 8.468 8.5795 17.605 4.1226 9.1366 7.911 18.719 3.7883-9.8051 8.0224-19.053 4.2341-9.248 8.6909-17.939l83.344-164.01q2.2284-4.234 4.5683-6.5739 2.3398-2.3399 5.2368-3.4541 2.8969-1.1142 6.5739-1.3371 3.6769-0.22285 8.5794-0.22285h57.494v324.68h-66.408v-186.74q0-13.593 1.3371-29.415l-86.018 166.91q-4.0112 7.7995-10.808 11.811-6.7968 4.0112-15.488 4.0112h-10.251q-8.6909 0-15.488-4.0112-6.7967-4.0112-10.808-11.811l-86.463-167.13q0.89137 7.7995 1.3371 15.488 0.44569 7.6881 0.44569 14.151v186.74h-66.407v-324.68h57.494q4.9026 0 8.5795 0.22285 3.6769 0.22284 6.5739 1.3371 2.897 1.1142 5.2368 3.4541 2.3399 2.3399 4.5683 6.5739l83.566 164.68zm435.21 30.752q0 27.187-6.7968 49.471-6.7968 22.284-20.502 38.218-13.705 15.933-34.429 24.736-20.725 8.8024-48.803 8.8024-12.702 0-25.07-1.3371-12.368-1.337-25.738-4.4568l4.0112-43.9q0.44565-5.7939 4.5682-9.3594 4.1227-3.5655 11.476-3.5655 3.7884 0 9.3594 1.2256 5.5711 1.2257 13.371 1.2257 10.919 0 19.053-3.0085 8.1339-3.0084 13.482-10.028 5.3482-7.0195 8.0223-18.385 2.6741-11.365 2.6741-28.078v-208.58h75.321v207.02z" style="z-index:999" class="brand__initials" />
  <rect width="800" height="800" rx="0" fill="none" stroke="#000" stroke-width="10%" class="brand__border"/>
</svg>