<?xml version="1.0" standalone="no"?>
<!DOCTYPE svg PUBLIC "-//W3C//DTD SVG 20010904//EN"
 "http://www.w3.org/TR/2001/REC-SVG-20010904/DTD/svg10.dtd">
<svg version="1.0" xmlns="http://www.w3.org/2000/svg"
 width="700.000000pt" height="700.000000pt" viewBox="0 0 700.000000 700.000000"
 preserveAspectRatio="xMidYMid meet">
<metadata>
Created by potrace 1.11, written by Peter Selinger 2001-2013
</metadata>
<g transform="translate(0.000000,700.000000) scale(0.100000,-0.100000)"
fill="#000000" stroke="none">
<path d="M875 4931 c-3 -2 -5 -642 -5 -1420 l0 -1416 290 0 290 0 -1 895 c0
492 -4 917 -8 943 -5 26 -5 44 -1 40 7 -8 66 -121 245 -468 175 -339 249 -482
305 -590 32 -60 90 -173 130 -249 99 -194 121 -223 190 -253 51 -22 67 -24
155 -23 103 0 131 6 182 36 54 31 81 71 190 284 49 96 140 274 203 395 62 121
140 274 175 340 34 66 109 210 165 320 57 110 103 201 104 202 1 1 1 -420 1
-935 l0 -937 283 0 c179 0 286 3 290 10 6 10 10 2787 4 2816 -3 14 -38 15
-305 14 -183 -1 -312 -6 -327 -13 -58 -23 -30 27 -505 -907 -280 -551 -375
-743 -420 -848 -21 -48 -39 -86 -40 -85 -2 2 -18 39 -36 83 -29 72 -335 684
-559 1120 -48 94 -134 262 -191 375 -90 178 -141 258 -167 261 -4 0 -16 3 -27
6 -25 6 -604 11 -610 4z"/>
<path d="M5470 3969 c0 -819 -2 -980 -15 -1055 -29 -166 -100 -267 -215 -301
-55 -17 -121 -19 -327 -11 -85 3 -93 1 -117 -21 -32 -30 -43 -66 -51 -166 -3
-44 -8 -96 -10 -115 -2 -19 -7 -69 -10 -111 l-6 -76 43 -8 c65 -12 69 -12 123
-21 28 -4 57 -9 65 -11 30 -7 307 -7 369 0 167 20 314 74 436 162 179 129 304
342 351 600 2 11 7 38 11 60 4 22 8 490 10 1040 l4 1001 -331 0 -330 0 0 -967z"/>
</g>
</svg>
